<svg width="71.179mm" height="65.686mm" version="1.1" viewBox="0 0 71.179 65.686" xmlns="http://www.w3.org/2000/svg">
 <g transform="translate(1037.2 256.69)">
  <g transform="translate(-1836.9 -41.708)" style="stroke:#fff">
   <g transform="translate(141.36 -3.4018)" style="stroke:#fff">
    <g transform="translate(539.19 -243.05)" style="stroke:#fff">
     <g style="stroke:#fff">
      <g style="stroke:#fff">
       <rect x="119.14" y="32.418" width="64.73" height="64.73" style="fill:none;paint-order:stroke fill markers;stroke:none"/>
      </g>
      <g transform="matrix(1 0 0 1.1934 194.64 85.946)" style="stroke-width:.91537;stroke:#fff">
       <g transform="matrix(.87329 0 0 .86769 -5.4664 -2.3462)" style="stroke-width:1.0516;stroke:#fff">
        <path transform="matrix(.30297 0 0 .2555 -80.202 -49.91)" d="m204.03 0.0019531-5.3242 4.2207s-18.399 14.551-34.635 32.887c-7.134 8.0569-10.607 19.203-10.406 29.516 0.10045 5.1564 1.1408 10.156 3.4961 14.477 2.2176 4.0678 5.7697 7.5228 10.396 9.2539-0.25888-0.20015-0.52087-0.38543-0.77734-0.5957l1.6504 0.89844c-0.29538-0.0939-0.58589-0.1953-0.87305-0.30273 2.0923 1.6176 4.2572 2.9197 6.459 3.8984-0.23229 0.49168-0.38336 1.0181-0.44727 1.5586-1.6293 12.217 3.5513 22.248 11.758 27.553 8.2065 5.3047 18.956 6.3594 29.092 3.2422 13.526-4.1598 25.859-14.33 35.139-23.354 9.2798-9.0239 15.473-17.135 15.473-17.135l3.9961-5.2266-6.0781-2.4727s-25.28-10.508-47.711-12.117c2.1016-12.608 0.12336-26.431-2.3613-37.711-2.7911-12.671-6.4238-22.223-6.4238-22.223zm-4.6387 16.775c0.38065 1.2239 0.83047 3.1943 1.2539 4.6816-1.9734-0.61435-4.1193 0.05748-5.3965 1.6895-3.8836 4.8368-6.4666 9.7702-8.5059 14.617l-1.4414-2.1504c-0.76977-1.1785-1.9977-1.9768-3.3828-2.1992 8.0072-7.9425 13.48-13.298 17.473-16.639zm3.457 12.908c0.0966 0.42189 0.19439 0.64416 0.28906 1.0742 2.6262 11.922 4.287 26.781 1.4844 37.627-1.9964 7.7261-6.9773 13.959-12.648 16.699-4.4828 2.1664-9.3218 2.4312-14.605-0.33398 4.9298-4.5081 7.7221-9.8496 9.7754-15.436 0.54654-0.80218 0.84919-1.7468 0.8711-2.7188 0.41384-1.2915 0.87783-2.5609 1.2363-3.8594l11.266-3.9648c2.6-0.91499 3.9697-3.7751 3.0593-6.3882s-3.7562-3.9897-6.3562-3.0747l-4.3379 1.5254c2.0448-7.1927 4.54-14.306 9.9668-21.15zm-26.65 9.4316c0.11386 0.75644 0.39847 1.4766 0.83203 2.1055l5.7695 8.5938c-0.4822 1.7864-1.1836 3.74-1.6133 5.4238l-4.8106-6.7969c-1.7739-2.5744-5.436-2.9023-7.6348-0.68359 0.85415-1.4227 1.7431-2.8159 2.7812-3.9883 1.6097-1.818 3.0372-2.9199 4.6758-4.6543zm-8.8184 11.227c-0.26421 1.3688 0.0507 2.7863 0.86914 3.9121l9.1816 12.977c-1.715 4.2383-3.8966 7.9692-7.5059 10.955-0.48158 0.38961-0.88691 0.8658-1.1953 1.4043-1.0852-0.83796-2.041-1.8716-2.8223-3.3047-1.3612-2.4968-2.1978-5.9755-2.2734-9.8594-0.10205-5.2409 1.3206-11.057 3.7461-16.084zm-120.65 24.125v102.94h151.21v-47.066h-9.1875v36.18h-132.84v-78.07l66.424 46.258 49.709-34.617-13.662-3.1699-36.047 25.1-48.975-34.104h78.1v-6.3398h-0.0488v-7.1074zm165.78 1.7363c2.8301 0.16926 5.8776 0.75124 8.8711 1.209-0.55416 0.48454-0.99499 1.0861-1.291 1.7617l-4.0976 9.0684c-6.7597 1.9673-12.757 4.1939-18.139 5.0645 6.5006-3.6378 11.618-9.7472 14.656-17.104zm16.398 2.3574c11.264 2.4444 18.554 5.0158 23.676 6.8906-0.85056 0.98191-2.3151 2.4316-3.375 3.5957-0.51251-2.0141-2.2087-3.5012-4.2637-3.7383-6.1525-0.7955-11.641-0.43372-16.82 0.32617l1.0449-2.3164c0.71624-1.5289 0.61784-3.3176-0.26172-4.7578zm8.2051 16.344c2.0227-0.02137 4.1047 0.08359 6.2617 0.34766-0.30259 0.29894-0.43592 0.49525-0.74609 0.79688-8.7316 8.4908-20.459 17.692-31.121 20.971-7.5948 2.3356-15.485 1.3372-20.777-2.084-5.2926-3.4211-8.471-8.7824-7.2695-17.791 0.0265-0.17799 0.0435-0.35729 0.0508-0.53711 3.5062 0.21734 6.9366-0.28377 10.131-1.4043-2.9938 3.5499 0.0218 8.9273 4.5938 8.1914 3.5552-0.47388 6.937-1.3323 10.285-2.2715l8.9824 7.3516c5.1695 4.339 11.574-3.569 6.2969-7.7754l-3.6523-2.9922c5.37-1.5288 10.897-2.7386 16.965-2.8027z" style="color-rendering:auto;color:#000000;dominant-baseline:auto;fill-rule:evenodd;fill:#f5f5f5;font-feature-settings:normal;font-variant-alternates:normal;font-variant-caps:normal;font-variant-ligatures:normal;font-variant-numeric:normal;font-variant-position:normal;image-rendering:auto;isolation:auto;mix-blend-mode:normal;paint-order:stroke fill markers;shape-padding:0;shape-rendering:auto;solid-color:#000000;stroke:none;text-decoration-color:#000000;text-decoration-line:none;text-decoration-style:solid;text-indent:0;text-orientation:mixed;text-transform:none;white-space:normal"/>
       </g>
      </g>
     </g>
    </g>
   </g>
  </g>
 </g>
</svg>
