<svg width="64.73mm" height="64.73mm" version="1.1" viewBox="0 0 64.73 64.73" xmlns="http://www.w3.org/2000/svg">
 <g transform="translate(278.81 167.77)">
  <g transform="translate(-807.14 42.859)">
   <g transform="translate(407.19 -310.97)" style="stroke:#000">
    <g transform="translate(2.0118 -.081115)" style="stroke:#000">
     <rect transform="translate(2.7083e-7 68)" x="119.14" y="32.418" width="64.73" height="64.73" style="fill:none;paint-order:stroke fill markers;stroke:none"/>
     <g style="stroke:#000">
      <path transform="matrix(.26458 0 0 .26458 119.14 100.42)" d="m46.721 70.857v102.94h102.53v-10.887h-93.346v-78.07l66.424 46.256 66.42-46.254v40.252h9.1875v-54.234zm26.631 13.447h97.945l-48.973 34.104zm114.63 45.963v6.5918c-5.1524 0.78715-10.037 2.814-14.232 5.9062l-4.668-4.6699-6.8281 6.8262 4.6699 4.6699c-3.0871 4.1966-5.1092 9.0799-5.8926 14.23h-6.6055v9.6562h6.5918c0.78746 5.1518 2.8143 10.035 5.9062 14.23l-4.6699 4.6699 6.8281 6.8262 4.668-4.668c4.1974 3.0867 9.0814 5.1081 14.232 5.8906v6.6055h9.6543v-6.5918c5.1518-0.78745 10.035-2.8143 14.23-5.9062l4.6699 4.6699 6.8262-6.8262-4.668-4.6699c3.0864-4.1968 5.1078-9.0801 5.8906-14.23h6.6074v-9.6562h-6.5918c-0.78745-5.1518-2.8143-10.035-5.9062-14.23l4.668-4.6699-6.8262-6.8262-4.668 4.668c-4.1974-3.0867-9.0814-5.1081-14.232-5.8906v-6.6055zm4.8281 15.855c12.441 1e-3 22.525 10.087 22.525 22.527 2e-5 12.441-10.085 22.526-22.525 22.527-12.442 3e-5 -22.527-10.086-22.527-22.527-2e-5 -12.442 10.086-22.527 22.527-22.527z" style="fill:#fff;paint-order:stroke fill markers;stroke:none"/>
      <g transform="matrix(1 0 0 1.1934 194.64 153.95)" style="stroke-width:.91537;stroke:#000"></g>
     </g>
    </g>
   </g>
  </g>
 </g>
</svg>
