<?xml version="1.0" encoding="UTF-8"?>
<svg width="64.73mm" height="64.73mm" version="1.1" viewBox="0 0 64.73 64.73" xmlns="http://www.w3.org/2000/svg" xmlns:cc="http://creativecommons.org/ns#" xmlns:dc="http://purl.org/dc/elements/1.1/" xmlns:rdf="http://www.w3.org/1999/02/22-rdf-syntax-ns#">
 <metadata>
  <rdf:RDF>
   <cc:Work rdf:about="">
    <dc:format>image/svg+xml</dc:format>
    <dc:type rdf:resource="http://purl.org/dc/dcmitype/StillImage"/>
    <dc:title/>
    <dc:title/>
   </cc:Work>
  </rdf:RDF>
 </metadata>
 <g transform="translate(13.655 -119.01)">
  <g transform="translate(-965.59 325.21)">
   <g transform="translate(683.95 4.8102)">
    <g transform="translate(148.58 -379.61)" style="stroke:#000">
     <rect x="119.4" y="168.6" width="64.73" height="64.73" style="fill:none;paint-order:stroke fill markers;stroke:none"/>
     <g transform="matrix(1.1436 0 0 1.1426 -30.245 -32.249)" style="stroke-width:.87484;stroke:#000">
      <g style="stroke-width:.87484;stroke:#000">
       <g transform="matrix(1.0481 0 0 1.045 246.42 2.8713)" style="stroke-width:.83593;stroke:#000"></g>
      </g>
     </g>
     <g transform="matrix(1 0 0 1.1934 194.64 221.95)" style="stroke-width:.91537;stroke:#000">
      <g transform="matrix(.86133 0 0 .83981 -2.2898 -.94039)" style="stroke-width:1.0763"></g>
     </g>
    </g>
   </g>
   <path d="m964.44-186.94v26.219h25.684c0.73012-3.6e-4 1.3219-0.59214 1.3223-1.3223-3.6e-4 -0.73012-0.59215-1.3219-1.3223-1.3223h-23.037v-20l8.2891 5.6641 8.9199 6.0957 8.918-6.0957 8.2911-5.666v8.8516c-7e-4 0.73086 0.5913 1.3238 1.3222 1.3242 0.7309-3.4e-4 1.323-0.59332 1.3223-1.3242v-12.424h-19.854zm7.791 3.8848h24.127l-4.6367 3.1699-7.4258 5.0742-7.4258-5.0742zm25.715 5.9121c-0.34251 4e-3 -0.67018 0.14036-0.91407 0.38086l-7.3711 7.2812c-8e-3 8e-3 -0.0157 0.0155-0.0234 0.0234l-0.0215 0.0195c-1e-3 2e-3 -3e-3 4e-3 -4e-3 6e-3 -3e-3 2e-3 -5e-3 4e-3 -8e-3 6e-3 -3e-3 4e-3 -7e-3 8e-3 -0.01 0.0117l-2e-3 2e-3c-0.0147 0.0153-0.029 0.0309-0.043 0.0469-6e-3 6e-3 -0.0118 0.013-0.0176 0.0195-8e-3 0.01-0.0158 0.0194-0.0234 0.0293l-2e-3 2e-3c-9e-3 0.0109-0.0171 0.022-0.0254 0.0332l-4e-3 4e-3c-6.6e-4 1e-3 -1e-3 3e-3 -2e-3 4e-3 -6.5e-4 1e-3 -1e-3 3e-3 -2e-3 4e-3l-6e-3 6e-3c-6.5e-4 1e-3 -1e-3 3e-3 -2e-3 4e-3 -7e-3 0.0103-0.0145 0.0207-0.0215 0.0312-5e-3 8e-3 -0.0105 0.0156-0.0156 0.0234-1e-3 3e-3 -3e-3 5e-3 -4e-3 8e-3 -0.0101 0.0161-0.0199 0.0323-0.0293 0.0488-6e-3 0.0103-0.0118 0.0207-0.0176 0.0312-6.6e-4 1e-3 -1e-3 3e-3 -2e-3 4e-3 -7e-3 0.0142-0.0146 0.0285-0.0215 0.043-5e-3 9e-3 -9e-3 0.0182-0.0137 0.0274-3e-3 5e-3 -5e-3 0.0104-8e-3 0.0156v2e-3c-7e-3 0.0161-0.0133 0.0324-0.0195 0.0488-2e-3 4e-3 -4e-3 8e-3 -6e-3 0.0117-2e-3 6e-3 -4e-3 0.013-6e-3 0.0195-1e-3 3e-3 -3e-3 5e-3 -4e-3 8e-3 -6.5e-4 1e-3 -1e-3 3e-3 -2e-3 4e-3 -8e-3 0.0239-0.015 0.048-0.0215 0.0723-2e-3 5e-3 -4e-3 0.0104-6e-3 0.0156-1e-3 6e-3 -3e-3 0.0117-4e-3 0.0176-5e-3 0.0194-0.01 0.039-0.0137 0.0586v2e-3c-1e-3 6e-3 -3e-3 0.0117-4e-3 0.0176-2e-3 0.011-4e-3 0.0221-6e-3 0.0332-1e-3 8e-3 -3e-3 0.0156-4e-3 0.0234-1e-3 7e-3 -3e-3 0.0143-4e-3 0.0215v4e-3c-6.7e-4 4e-3 -1e-3 8e-3 -2e-3 0.0117v2e-3 4e-3 4e-3c-2e-3 0.0136-3e-3 0.0273-4e-3 0.041-2e-3 0.0156-3e-3 0.0312-4e-3 0.0469-3e-5 5e-3 -3e-5 0.0104 0 0.0156-3e-5 5e-3 -3e-5 0.0104 0 0.0156-6.8e-4 5e-3 -1e-3 0.0104-2e-3 0.0156-3e-5 5e-3 -3e-5 0.0104 0 0.0156-2e-5 4e-3 -2e-5 8e-3 0 0.0117-1e-5 3e-3 -1e-5 7e-3 0 0.01-2e-5 4e-3 -2e-5 8e-3 0 0.0117 6.1e-4 6e-3 1e-3 0.0117 2e-3 0.0176 3.7e-4 0.0156 1e-3 0.0313 2e-3 0.0469 2e-3 0.0228 5e-3 0.0456 8e-3 0.0684 5.6e-4 9e-3 1e-3 0.0182 2e-3 0.0273 1e-3 5e-3 3e-3 0.0104 4e-3 0.0156 6.4e-4 4e-3 1e-3 8e-3 2e-3 0.0117 6.2e-4 5e-3 1e-3 0.0104 2e-3 0.0156 3e-3 0.0176 6e-3 0.0352 0.01 0.0527 1e-3 4e-3 3e-3 8e-3 4e-3 0.0117v4e-3c6.5e-4 2e-3 1e-3 4e-3 2e-3 6e-3v4e-3c4e-3 0.0124 8e-3 0.0248 0.0117 0.0371 4e-3 0.015 8e-3 0.03 0.0117 0.0449 2e-3 6e-3 4e-3 0.0117 6e-3 0.0176 4e-3 0.01 8e-3 0.0196 0.0117 0.0293v4e-3c3e-3 9e-3 6e-3 0.0183 0.01 0.0273 2e-3 5e-3 4e-3 0.0104 6e-3 0.0156l2e-3 2e-3c6e-3 0.0138 0.0115 0.0275 0.0176 0.041 6e-3 0.0138 0.0115 0.0274 0.0176 0.041 6.5e-4 1e-3 1e-3 3e-3 2e-3 4e-3 3e-3 5e-3 5e-3 9e-3 8e-3 0.0137 3e-3 5e-3 5e-3 0.0104 8e-3 0.0156 8e-3 0.0158 0.0166 0.0314 0.0254 0.0469 1e-3 3e-3 3e-3 5e-3 4e-3 8e-3 2e-3 3e-3 4e-3 5e-3 6e-3 8e-3 6.5e-4 2e-3 1e-3 4e-3 2e-3 6e-3l2e-3 2e-3c3e-3 4e-3 5e-3 8e-3 8e-3 0.0117 5e-3 9e-3 0.0103 0.017 0.0156 0.0254 4e-3 7e-3 8e-3 0.013 0.0117 0.0195 3e-3 3e-3 5e-3 7e-3 8e-3 0.01 0.0126 0.0186 0.0256 0.0368 0.0391 0.0547 4e-3 7e-3 9e-3 0.0131 0.0137 0.0195l4e-3 4e-3c0.0133 0.0166 0.0269 0.0329 0.041 0.0488 7e-3 9e-3 0.0142 0.017 0.0215 0.0254l0.0117 0.0117c7e-3 7e-3 0.0142 0.0144 0.0215 0.0215l0.0254 0.0254 7.4023 7.3125c0.51989 0.51355 1.3577 0.5083 1.8711-0.0117 0.51355-0.51989 0.5083-1.3577-0.0117-1.8711l-5.123-5.0606h16.508c0.7309-3.4e-4 1.323-0.59332 1.3223-1.3242-4e-4 -0.73013-0.5922-1.3219-1.3223-1.3223h-16.51l5.125-5.0606c0.52002-0.51341 0.52527-1.3512 0.0117-1.8711-0.25251-0.25533-0.59796-0.39703-0.95703-0.39258z" style="color-rendering:auto;color:#000000;dominant-baseline:auto;fill-rule:evenodd;fill:#292b2c;font-feature-settings:normal;font-variant-alternates:normal;font-variant-caps:normal;font-variant-east-asian:normal;font-variant-ligatures:normal;font-variant-numeric:normal;font-variant-position:normal;font-variation-settings:normal;image-rendering:auto;inline-size:0;isolation:auto;mix-blend-mode:normal;shape-margin:0;shape-padding:0;shape-rendering:auto;solid-color:#000000;stop-color:#000000;text-decoration-color:#000000;text-decoration-line:none;text-decoration-style:solid;text-indent:0;text-orientation:mixed;text-transform:none;white-space:normal"/>
  </g>
 </g>
</svg>
